<svg xmlns="http://www.w3.org/2000/svg" viewBox="0 0 250 279" role="img" aria-label="convisto mark"><path d="M180.945 58.2011C161.685 76.0004 147.332 94.3083 142.608 107.531C134.068 131.094 135.885 158.555 147.332 180.593C153.691 193.137 157.688 197.883 176.766 215.852C197.661 235.686 199.114 236.703 206.018 236.703C212.559 236.703 214.558 235.516 226.913 224.328C243.811 209.241 246.899 205.173 246.899 198.392C246.899 193.646 243.447 189.747 221.462 169.066C199.296 148.215 196.025 144.485 196.025 139.569C196.025 134.823 199.296 131.094 221.462 110.243C245.446 87.5276 246.899 85.8324 246.899 79.5603C246.899 73.4576 245.628 71.7625 229.82 57.3535C214.558 43.2835 212.196 41.7579 206.018 41.7579C199.841 41.7579 197.479 43.2835 180.945 58.2011Z" fill="#F1EFFA"></path><path d="M171.627 254.328C178.714 262.478 177.581 279 166.982 279H107.24C103.768 279 96.6146 277.475 94.2925 274.804L3.16435 170.005C-3.92261 161.854 1.66994 148.873 12.2682 148.873H69.0378C72.5103 148.873 75.8196 150.398 78.1416 153.069L171.627 254.328Z" fill="#F1EFFA"></path><path d="M171.627 24.6716C178.714 16.5214 177.581 0 166.982 0H107.24C103.768 0 96.6146 1.52506 94.2925 4.1955L3.16435 108.995C-3.9226 117.146 1.66994 130.126 12.2682 130.126H69.0378C72.5103 130.126 75.8196 128.601 78.1416 125.931L171.627 24.6716Z" fill="#F1EFFA"></path></svg>