<svg xmlns="http://www.w3.org/2000/svg" viewBox="0 0 1420 279" role="img" aria-label="convisto"><path d="M956.234 35.44C949.444 37.007 943.524 44.1456 943.524 50.936C943.524 59.4676 946.136 63.8204 953.1 66.7803C971.208 74.2671 989.838 63.1239 985.485 47.1055C984.789 44.4938 982.351 41.0116 979.914 39.2705C975.561 36.1364 963.025 34.0471 956.234 35.44Z" fill="#F1EFFA"></path><path d="M1165.34 63.4725C1166.04 70.9593 1167.08 80.0132 1167.61 83.4955L1168.65 90.1117H1155.25H1142.01V102.3C1142.01 108.916 1142.01 115.01 1142.01 115.706C1142.01 116.577 1147.06 117.273 1153.33 117.622L1164.65 118.144V150.877C1164.65 189.008 1166.39 197.017 1176.84 208.857C1186.76 220.348 1197.9 224.527 1219.49 225.397C1241.08 226.268 1252.23 224.527 1253.1 220C1253.44 218.259 1253.27 211.817 1252.57 205.723L1251.53 194.928L1235.34 195.798C1222.1 196.669 1218.1 196.321 1212.7 193.709C1202.43 188.834 1201.21 183.959 1201.21 148.44V117.97H1226.46H1251.7V104.041V90.1117H1222.1C1205.91 90.1117 1192.51 89.9376 1192.51 89.5894C1192.51 89.2412 1195.29 80.8838 1198.6 71.1334C1201.91 61.209 1204.17 52.3293 1203.65 51.6328C1203.13 50.7622 1194.07 50.0658 1183.45 50.0658H1164.13L1165.34 63.4725Z" fill="#F1EFFA"></path><path d="M346.839 89.2417C310.972 99.1661 294.083 123.368 296.172 161.673C298.262 196.321 318.111 217.563 355.023 224.527C368.429 226.965 399.073 225.224 410.739 221.393L420.315 218.085L420.837 203.634C421.185 195.799 421.011 189.357 420.663 189.357C420.315 189.357 413.873 190.924 406.386 192.839C389.845 197.018 367.385 197.366 356.59 193.709C339.701 187.615 331.343 173.338 332.736 152.445C333.781 135.207 339.004 127.024 352.759 120.234C361.813 115.881 364.599 115.359 379.398 115.533C391.064 115.707 399.247 116.752 407.256 119.537C413.524 121.453 419.096 123.194 419.967 123.194C420.663 123.194 421.185 116.577 421.185 108.394V93.7686L412.132 90.8087C399.247 86.8041 359.201 85.7594 346.839 89.2417Z" fill="#F1EFFA"></path><path d="M486.478 89.0672C450.959 97.5988 430.762 129.636 436.856 167.766C442.776 205.549 469.415 225.92 512.421 225.92C547.94 225.92 572.838 212.861 584.504 187.963C588.857 178.909 589.205 176.298 589.205 156.275C589.205 136.426 588.857 133.64 584.678 124.76C575.972 106.13 561.869 94.813 540.453 89.2413C528.091 86.1073 499.014 85.9332 486.478 89.0672ZM527.221 116.229C543.761 120.93 553.512 135.033 553.512 154.36C553.512 175.427 547.418 186.919 532.966 193.361C519.56 199.107 495.532 197.191 486.478 189.704C469.589 175.601 467.848 138.689 483.344 124.586C492.92 115.881 512.769 112.05 527.221 116.229Z" fill="#F1EFFA"></path><path d="M682.181 89.7632C664.944 96.7278 654.671 109.264 649.796 129.635C648.055 136.251 646.488 139.908 645.792 138.515C645.095 137.296 642.658 125.805 640.568 113.094L636.389 90.1115H623.679H610.969L611.317 155.752L611.84 221.567L629.599 222.089L647.184 222.611L647.881 184.655C648.403 148.962 648.577 146.176 652.408 138.515C665.466 112.05 699.767 107 716.133 128.939C719.615 133.64 719.79 136.774 720.66 177.69L721.531 221.567L739.464 222.089L757.224 222.611V179.954C757.224 155.056 756.353 133.466 755.309 128.068C751.652 110.831 742.947 98.8171 728.669 91.5044C718.571 86.1069 693.498 85.2363 682.181 89.7632Z" fill="#F1EFFA"></path><path d="M1045.21 89.0675C1018.74 95.6838 1005.86 115.184 1014.04 136.252C1019.09 149.833 1033.02 157.32 1064.01 163.24C1082.29 166.722 1090.48 170.204 1093.26 175.253C1098.31 185.004 1092.22 193.535 1078.11 196.147C1066.8 198.41 1041.2 195.625 1027.45 190.924C1010.56 185.004 1011.43 185.004 1011.43 189.705C1011.43 192.142 1010.91 198.759 1010.38 204.678L1009.16 215.299L1015.96 218.085C1037.02 226.791 1084.21 228.358 1104.58 220.697C1128.43 211.817 1138.53 196.321 1133.31 176.994C1129.13 161.324 1113.98 152.27 1080.2 145.48C1070.63 143.565 1060.53 140.779 1057.92 139.386C1046.95 133.815 1048.69 120.756 1061.05 116.577C1072.54 112.573 1091.87 114.836 1122.86 123.368C1124.95 123.89 1125.65 121.452 1126.52 111.006C1127.21 102.3 1127.04 97.2508 1125.65 95.8579C1119.03 88.7193 1064.36 84.0182 1045.21 89.0675Z" fill="#F1EFFA"></path><path d="M1314.73 89.2413C1280.95 98.6434 1263.89 123.89 1265.98 161.846C1268.42 202.937 1296.45 225.92 1343.81 225.92C1369.93 225.92 1390.47 217.911 1404.05 202.763C1415.72 190.053 1419.55 178.387 1419.55 156.275C1419.55 136.426 1416.24 124.586 1407.54 112.921C1401.44 104.389 1386.82 94.1165 1376.54 90.8083C1364.01 86.6296 1327.09 85.7591 1314.73 89.2413ZM1362.27 118.666C1377.41 125.805 1382.81 135.555 1382.81 156.275C1382.81 183.262 1369.75 196.669 1343.11 196.669C1323.26 196.669 1313.34 191.271 1306.38 176.298C1301.85 166.547 1300.8 151.574 1304.11 139.908C1306.55 131.203 1316.82 120.233 1325.7 117.099C1336.67 113.269 1352.17 113.791 1362.27 118.666Z" fill="#F1EFFA"></path><path d="M770.282 93.0717C770.804 94.8128 774.112 104.041 777.42 113.617C780.728 123.193 790.653 151.574 799.533 176.82L815.551 222.438L849.503 222.089L883.455 221.567L892.683 195.45C897.906 180.999 908.179 151.574 915.666 129.635L929.247 90.1117H910.791H892.161L871.789 152.618C860.472 186.918 851.244 215.995 851.244 217.04C851.244 218.085 850.548 218.955 849.851 218.955C848.981 218.955 846.369 212.513 843.931 204.504C841.494 196.669 832.266 167.766 823.212 140.256L806.845 90.1117H787.867C770.63 90.1117 769.063 90.2859 770.282 93.0717Z" fill="#F1EFFA"></path><path d="M938.301 104.911V119.711H944.395H950.489L950.837 170.552L951.359 221.567L969.293 222.089L987.052 222.611V156.274V90.1115H962.677H938.301V104.911Z" fill="#F1EFFA"></path><path d="M180.945 58.2011C161.685 76.0004 147.332 94.3083 142.608 107.531C134.068 131.094 135.885 158.555 147.332 180.593C153.691 193.137 157.688 197.883 176.766 215.852C197.661 235.686 199.114 236.703 206.018 236.703C212.559 236.703 214.558 235.516 226.913 224.328C243.811 209.241 246.899 205.173 246.899 198.392C246.899 193.646 243.447 189.747 221.462 169.066C199.296 148.215 196.025 144.485 196.025 139.569C196.025 134.823 199.296 131.094 221.462 110.243C245.446 87.5276 246.899 85.8324 246.899 79.5603C246.899 73.4576 245.628 71.7625 229.82 57.3535C214.558 43.2835 212.196 41.7579 206.018 41.7579C199.841 41.7579 197.479 43.2835 180.945 58.2011Z" fill="#F1EFFA"></path><path d="M171.627 254.328C178.714 262.478 177.581 279 166.982 279H107.24C103.768 279 96.6146 277.475 94.2925 274.804L3.16435 170.005C-3.92261 161.854 1.66994 148.873 12.2682 148.873H69.0378C72.5103 148.873 75.8196 150.398 78.1416 153.069L171.627 254.328Z" fill="#F1EFFA"></path><path d="M171.627 24.6716C178.714 16.5214 177.581 0 166.982 0H107.24C103.768 0 96.6146 1.52506 94.2925 4.1955L3.16435 108.995C-3.9226 117.146 1.66994 130.126 12.2682 130.126H69.0378C72.5103 130.126 75.8196 128.601 78.1416 125.931L171.627 24.6716Z" fill="#F1EFFA"></path></svg>