<svg width="730" height="196" viewBox="0 0 730 196" fill="none" xmlns="http://www.w3.org/2000/svg">
<path d="M188.73 131.676L173.965 79.4771H182.988L193.95 120.266L205.806 79.4771H213.711L225.493 120.266L236.454 79.4771H245.477L230.712 131.676H220.795L209.758 93.5707L198.648 131.676H188.73ZM261.096 132.645C255.627 132.645 250.979 130.756 247.151 126.978C243.323 123.2 241.41 118.551 241.41 113.033C241.41 107.515 243.323 102.867 247.151 99.0888C250.979 95.3106 255.627 93.4216 261.096 93.4216C266.614 93.4216 271.262 95.3106 275.04 99.0888C278.868 102.867 280.782 107.515 280.782 113.033C280.782 118.551 278.868 123.2 275.04 126.978C271.262 130.756 266.614 132.645 261.096 132.645ZM252.819 121.46C255.056 123.697 257.815 124.815 261.096 124.815C264.377 124.815 267.136 123.697 269.373 121.46C271.61 119.222 272.729 116.414 272.729 113.033C272.729 109.653 271.61 106.844 269.373 104.607C267.136 102.37 264.377 101.251 261.096 101.251C257.815 101.251 255.056 102.37 252.819 104.607C250.582 106.844 249.463 109.653 249.463 113.033C249.463 116.414 250.582 119.222 252.819 121.46ZM303.947 93.4216C308.223 93.4216 311.678 94.7887 314.313 97.5229C316.947 100.257 318.265 104.01 318.265 108.783V131.676H310.211V109.603C310.211 106.819 309.466 104.681 307.974 103.19C306.483 101.699 304.445 100.953 301.86 100.953C299.026 100.953 296.739 101.848 294.999 103.638C293.259 105.377 292.389 108.062 292.389 111.691V131.676H284.336V94.391H292.389V99.1634C294.825 95.3355 298.678 93.4216 303.947 93.4216ZM330.814 87.3069C329.82 88.3011 328.627 88.7983 327.235 88.7983C325.843 88.7983 324.625 88.3011 323.581 87.3069C322.586 86.2629 322.089 85.0449 322.089 83.653C322.089 82.261 322.586 81.0679 323.581 80.0737C324.575 79.0297 325.793 78.5077 327.235 78.5077C328.676 78.5077 329.894 79.0297 330.888 80.0737C331.883 81.0679 332.38 82.261 332.38 83.653C332.38 85.0449 331.858 86.2629 330.814 87.3069ZM323.208 131.676V94.391H331.261V131.676H323.208ZM356.495 93.4216C360.771 93.4216 364.226 94.7887 366.861 97.5229C369.495 100.257 370.813 104.01 370.813 108.783V131.676H362.759V109.603C362.759 106.819 362.014 104.681 360.522 103.19C359.031 101.699 356.993 100.953 354.407 100.953C351.574 100.953 349.287 101.848 347.547 103.638C345.807 105.377 344.937 108.062 344.937 111.691V131.676H336.884V94.391H344.937V99.1634C347.373 95.3355 351.226 93.4216 356.495 93.4216ZM405.434 94.391H413.339V129.96C413.339 135.628 411.474 139.978 407.746 143.01C404.018 146.043 399.494 147.559 394.174 147.559C385.574 147.559 379.683 144.551 376.502 138.536L383.436 134.509C385.375 138.337 389.004 140.251 394.324 140.251C397.803 140.251 400.513 139.331 402.452 137.492C404.44 135.702 405.434 133.192 405.434 129.96V125.412C402.402 129.737 398.077 131.899 392.459 131.899C387.19 131.899 382.74 130.035 379.111 126.307C375.482 122.528 373.668 117.98 373.668 112.66C373.668 107.341 375.482 102.817 379.111 99.0888C382.74 95.3106 387.19 93.4216 392.459 93.4216C398.077 93.4216 402.402 95.5841 405.434 99.9091V94.391ZM385.077 121.012C387.364 123.249 390.197 124.368 393.578 124.368C396.958 124.368 399.767 123.249 402.004 121.012C404.291 118.775 405.434 115.991 405.434 112.66C405.434 109.33 404.291 106.546 402.004 104.309C399.767 102.072 396.958 100.953 393.578 100.953C390.197 100.953 387.364 102.072 385.077 104.309C382.84 106.546 381.721 109.33 381.721 112.66C381.721 115.991 382.84 118.775 385.077 121.012ZM440.249 116.463C440.846 119.297 442.213 121.484 444.351 123.026C446.488 124.517 449.098 125.263 452.18 125.263C456.456 125.263 459.662 123.721 461.8 120.639L468.437 124.517C464.758 129.936 459.314 132.645 452.106 132.645C446.041 132.645 441.144 130.806 437.416 127.127C433.687 123.398 431.823 118.701 431.823 113.033C431.823 107.465 433.662 102.817 437.341 99.0888C441.02 95.3106 445.743 93.4216 451.509 93.4216C456.978 93.4216 461.452 95.3355 464.932 99.1634C468.461 102.991 470.226 107.639 470.226 113.108C470.226 113.953 470.127 115.071 469.928 116.463H440.249ZM440.175 109.901H462.098C461.551 106.869 460.284 104.582 458.295 103.041C456.356 101.5 454.07 100.729 451.435 100.729C448.452 100.729 445.966 101.55 443.978 103.19C441.989 104.831 440.722 107.068 440.175 109.901ZM493.196 93.4216C497.471 93.4216 500.926 94.7887 503.561 97.5229C506.196 100.257 507.513 104.01 507.513 108.783V131.676H499.46V109.603C499.46 106.819 498.714 104.681 497.223 103.19C495.731 101.699 493.693 100.953 491.108 100.953C488.274 100.953 485.988 101.848 484.248 103.638C482.508 105.377 481.638 108.062 481.638 111.691V131.676H473.584V94.391H481.638V99.1634C484.074 95.3355 487.926 93.4216 493.196 93.4216ZM578.674 104.681V108.261C578.674 115.419 576.312 121.286 571.59 125.859C566.867 130.383 560.703 132.645 553.096 132.645C545.043 132.645 538.381 130.035 533.112 124.815C527.892 119.595 525.282 113.182 525.282 105.576C525.282 98.02 527.892 91.6319 533.112 86.412C538.381 81.1425 544.894 78.5077 552.649 78.5077C557.521 78.5077 561.97 79.6263 565.997 81.8633C570.024 84.1004 573.156 87.108 575.393 90.8862L568.01 95.1366C566.618 92.651 564.555 90.6625 561.821 89.1711C559.087 87.63 556.03 86.8595 552.649 86.8595C547.181 86.8595 542.682 88.6491 539.152 92.2284C535.622 95.8078 533.858 100.282 533.858 105.651C533.858 111.02 535.622 115.469 539.152 118.999C542.731 122.528 547.404 124.293 553.171 124.293C557.794 124.293 561.548 123.224 564.431 121.087C567.364 118.899 569.228 115.991 570.024 112.362H552.574V104.681H578.674ZM588.601 116.463C589.198 119.297 590.565 121.484 592.703 123.026C594.84 124.517 597.45 125.263 600.532 125.263C604.808 125.263 608.014 123.721 610.152 120.639L616.788 124.517C613.11 129.936 607.666 132.645 600.458 132.645C594.393 132.645 589.496 130.806 585.768 127.127C582.039 123.398 580.175 118.701 580.175 113.033C580.175 107.465 582.014 102.817 585.693 99.0888C589.372 95.3106 594.095 93.4216 599.861 93.4216C605.33 93.4216 609.804 95.3355 613.284 99.1634C616.813 102.991 618.578 107.639 618.578 113.108C618.578 113.953 618.479 115.071 618.28 116.463H588.601ZM588.527 109.901H610.45C609.903 106.869 608.636 104.582 606.647 103.041C604.708 101.5 602.421 100.729 599.787 100.729C596.804 100.729 594.318 101.55 592.33 103.19C590.341 104.831 589.074 107.068 588.527 109.901ZM629.662 124.069H647.782V131.676H618.7V126.307L636.15 101.997H619.446V94.391H647.037V99.7599L629.662 124.069ZM659.166 87.3069C658.172 88.3011 656.978 88.7983 655.587 88.7983C654.195 88.7983 652.977 88.3011 651.933 87.3069C650.938 86.2629 650.441 85.0449 650.441 83.653C650.441 82.261 650.938 81.0679 651.933 80.0737C652.927 79.0297 654.145 78.5077 655.587 78.5077C657.028 78.5077 658.246 79.0297 659.24 80.0737C660.235 81.0679 660.732 82.261 660.732 83.653C660.732 85.0449 660.21 86.2629 659.166 87.3069ZM651.56 131.676V94.391H659.613V131.676H651.56ZM684.847 93.4216C689.123 93.4216 692.578 94.7887 695.212 97.5229C697.847 100.257 699.165 104.01 699.165 108.783V131.676H691.111V109.603C691.111 106.819 690.365 104.681 688.874 103.19C687.383 101.699 685.344 100.953 682.759 100.953C679.926 100.953 677.639 101.848 675.899 103.638C674.159 105.377 673.289 108.062 673.289 111.691V131.676H665.236V94.391H673.289V99.1634C675.725 95.3355 679.578 93.4216 684.847 93.4216Z" fill="white"></path>
<path d="M94.5752 39C101.721 39 132.233 56.3991 146.164 64.5684C150.526 67.126 153.151 71.8031 153.151 76.8594V81.3799L106.214 121.36L82.208 100.984C78.8124 98.1021 73.7232 98.5176 70.8408 101.913C67.9585 105.309 68.3749 110.398 71.7705 113.28L101.005 138.096C104.019 140.654 108.443 140.65 111.453 138.087L153.151 102.568V142.568C153.151 150.539 146.69 157 138.72 157H50.4316C42.4613 157 36 150.539 36 142.568V76.8594C36 71.8031 38.6256 67.126 42.9873 64.5684C56.9186 56.3992 87.4286 39.0006 94.5752 39Z" fill="white"></path>
</svg>