<svg width="730" height="196" viewBox="0 0 730 196" fill="none" xmlns="http://www.w3.org/2000/svg">
<g clip-path="url(#clip0_82_509)">
<path d="M290.501 98.3855C290.501 101.879 290.357 105.252 290.159 108.518C291.955 108.596 293.541 108.649 294.948 108.655C296.69 108.655 297.157 108.135 297.169 106.598C297.181 105.061 297.259 91.8001 297.271 90.2569C297.282 88.7137 296.816 88.1814 295.074 88.1694C293.655 88.1694 292.039 88.1694 290.285 88.2532C290.447 91.519 290.554 94.8924 290.501 98.3855Z" fill="white"></path>
<path d="M263.72 90.0657C248.486 91.3277 232.641 92.7393 224.566 92.6915C128.338 92.0993 105.783 90.0896 104.179 90.0776C102.575 90.0657 102.072 90.8253 102.066 91.6687C102.06 92.512 102 101.939 102 102.788C102 103.637 102.479 104.397 104.089 104.403C105.699 104.409 128.266 102.68 224.5 103.272C232.575 103.32 248.402 104.929 263.618 106.377L263.72 90.0657Z" fill="white"></path>
<path d="M272.657 164.401C277.895 153.994 286.909 131.343 287.113 98.3676C287.316 65.3926 278.583 42.6277 273.471 32.1544C271.364 27.8419 270.819 28.6793 272.028 34.1402C275.486 50.0717 277.176 66.3353 277.069 82.6367C277.069 84.4311 276.47 87.6311 269.024 87.5833C267.928 87.5833 267.12 88.1097 267.114 89.3777C267.108 90.6457 267.012 105.892 267 107.142C266.988 108.392 267.796 108.937 268.892 108.937C276.326 108.984 276.889 112.202 276.877 113.985C276.781 130.292 274.892 146.539 271.244 162.434C269.963 167.841 270.496 168.69 272.657 164.401Z" fill="white"></path>
<path d="M411.468 98.3855C411.468 101.879 411.612 105.252 411.809 108.518C410.013 108.596 408.427 108.649 407.02 108.655C405.278 108.655 404.812 108.135 404.8 106.598C404.788 105.061 404.71 91.8001 404.698 90.2569C404.686 88.7137 405.153 88.1814 406.895 88.1694C408.313 88.1694 409.93 88.1694 411.683 88.2532C411.522 91.519 411.468 94.8924 411.468 98.3855Z" fill="white"></path>
<path d="M438.249 90.0657C453.483 91.3277 469.333 92.7393 477.402 92.6915C573.637 92.0933 596.185 90.0896 597.79 90.0776C599.394 90.0657 599.897 90.8253 599.903 91.6687C599.909 92.512 599.962 101.939 599.968 102.788C599.974 103.637 599.49 104.397 597.879 104.403C596.269 104.409 573.703 102.68 477.468 103.272C469.393 103.32 453.573 104.929 438.351 106.377L438.249 90.0657Z" fill="white"></path>
<path d="M429.312 164.401C424.074 153.994 415.06 131.343 414.856 98.3676C414.653 65.3926 423.386 42.6277 428.498 32.1544C430.605 27.8419 431.15 28.6793 429.94 34.1402C426.483 50.0717 424.793 66.3353 424.9 82.6367C424.9 84.4311 425.499 87.6311 432.945 87.5833C434.041 87.5833 434.849 88.1097 434.855 89.3777C434.861 90.6457 434.957 105.892 434.969 107.142C434.981 108.392 434.172 108.937 433.077 108.937C425.643 108.984 425.08 112.202 425.092 113.985C425.188 130.292 427.077 146.539 430.725 162.434C432.006 167.841 431.473 168.69 429.312 164.401Z" fill="white"></path>
<path d="M306.261 7.83447V167.356L351.011 188.698L395.738 167.356V7.83447L351.011 32.322L306.261 7.83447ZM365.521 145.835L343.798 108.153L330.169 121.779V165.933L316.629 160.861V27.6446L330.169 33.8472V100.545L373.231 56.1994L385.633 63.1617L354.232 96.7946L388.124 153.725L365.521 145.835ZM388.124 22.3332V52.2398L360.631 37.1429L388.124 22.3332Z" fill="white"></path>
</g>
<defs>
<clipPath id="clip0_82_509">
<rect width="729.556" height="196" fill="white"></rect>
</clipPath>
</defs>
</svg>