<svg width="730" height="196" viewBox="0 0 730 196" fill="none" xmlns="http://www.w3.org/2000/svg">
<g clip-path="url(#clip0_82_594)">
<g clip-path="url(#clip1_82_594)">
<path d="M78.3583 110.891C78.3583 123.192 68.3851 133.165 56.0842 133.165H41.6986C39.6566 133.165 38.7571 135.755 40.3737 137C45.7281 141.127 52.4376 143.582 59.7185 143.582H119.163C124.438 143.582 128.717 139.304 128.717 134.028V99.9335H89.3161C83.2629 99.9335 78.3583 104.838 78.3583 110.891Z" fill="white"></path>
<path d="M28 99.9335H67.3946C73.4478 99.9335 78.3524 95.0289 78.3524 88.9757C78.3524 76.6748 88.3256 66.7016 100.627 66.7016H119.516C121.345 66.7016 122.342 64.5562 121.156 63.1644C115.346 56.3333 106.68 52 96.9982 52H37.5539C32.2786 52 28 56.2786 28 61.5539V99.9396V99.9335Z" fill="white"></path>
<path d="M180.631 133.902C174.025 133.902 168.453 132.867 163.916 130.799C159.378 128.664 155.942 125.794 153.606 122.191C151.271 118.521 150.103 114.317 150.103 109.579H166.018C166.018 111.447 166.518 113.182 167.519 114.784C168.587 116.385 170.188 117.687 172.324 118.688C174.459 119.622 177.228 120.089 180.631 120.089C183.701 120.089 186.27 119.688 188.339 118.888C190.407 118.087 191.975 116.986 193.043 115.585C194.111 114.117 194.645 112.448 194.645 110.58C194.645 108.244 193.644 106.409 191.642 105.075C189.64 103.673 186.404 102.773 181.933 102.372L176.428 101.872C169.154 101.271 163.349 99.0024 159.011 95.0654C154.674 91.1284 152.505 85.9235 152.505 79.4508C152.505 74.7798 153.606 70.7426 155.808 67.3395C158.077 63.9363 161.213 61.3338 165.217 59.5321C169.221 57.6637 173.959 56.7295 179.43 56.7295C185.169 56.7295 190.074 57.7305 194.144 59.7323C198.281 61.6675 201.451 64.4367 203.653 68.0401C205.855 71.5768 206.956 75.7473 206.956 80.5518H190.941C190.941 78.7501 190.507 77.1153 189.64 75.6472C188.772 74.1125 187.471 72.878 185.736 71.9438C184.068 71.0096 181.966 70.5425 179.43 70.5425C177.028 70.5425 174.993 70.9428 173.325 71.7436C171.723 72.5443 170.522 73.6454 169.721 75.0467C168.921 76.3813 168.52 77.8493 168.52 79.4508C168.52 81.5194 169.254 83.3211 170.722 84.8559C172.19 86.3906 174.593 87.2915 177.929 87.5584L183.534 88.0589C188.873 88.526 193.577 89.6937 197.647 91.5621C201.718 93.3638 204.888 95.8662 207.156 99.0692C209.492 102.205 210.66 106.042 210.66 110.58C210.66 115.251 209.425 119.355 206.956 122.891C204.554 126.361 201.117 129.064 196.646 130.999C192.176 132.934 186.837 133.902 180.631 133.902ZM232.317 132L214.3 58.9316H231.216L245.329 120.99L241.826 118.688H250.934L247.03 120.99L257.941 61.6341H271.553L257.24 132H232.317ZM275.857 132L260.443 61.6341H274.756L287.368 120.99L283.565 118.688H292.273L288.97 120.99L301.281 58.9316H317.296L301.281 132H275.857ZM327.635 132V58.9316H343.65V132H327.635ZM341.648 132V118.387H373.578V132H341.648ZM341.648 101.672V88.0589H371.276V101.672H341.648ZM341.648 72.5443V58.9316H372.877V72.5443H341.648ZM387.065 132V58.9316H413.991L441.516 118.688H444.92L442.918 120.489V58.9316H458.332V132H431.207L403.681 72.2441H400.278L402.28 70.4424V132H387.065ZM474.745 132V58.9316H501.67L529.196 118.688H532.599L530.597 120.489V58.9316H546.012V132H518.886L491.361 72.2441H487.958L489.959 70.4424V132H474.745ZM562.425 132V58.9316H578.44V132H562.425ZM576.438 132V118.387H608.368V132H576.438ZM576.438 101.672V88.0589H606.066V101.672H576.438ZM576.438 72.5443V58.9316H607.667V72.5443H576.438ZM621.856 132V58.9316H648.781L676.306 118.688H679.71L677.708 120.489V58.9316H693.122V132H665.997L638.471 72.2441H635.068L637.07 70.4424V132H621.856Z" fill="white"></path>
</g>
</g>
<defs>
<clipPath id="clip0_82_594">
<rect width="729.556" height="196" fill="white"></rect>
</clipPath>
<clipPath id="clip1_82_594">
<rect width="773.702" height="177.555" fill="white" transform="translate(-22 9)"></rect>
</clipPath>
</defs>
</svg>