<svg width="730" height="196" viewBox="0 0 730 196" fill="none" xmlns="http://www.w3.org/2000/svg">
<g clip-path="url(#clip0_82_535)">
<path d="M416.383 81.6578C433.165 81.5516 446.868 95.1475 447.08 112.036C446.974 128.712 433.484 142.308 416.807 142.308C400.025 142.415 386.428 128.925 386.322 112.249C386.216 95.4662 399.6 81.8702 416.383 81.6578ZM345.943 82.9324L358.902 120.852L369.434 89.5188C370.757 85.5835 374.445 82.9324 378.597 82.9324H387.688L369.63 134.13C367.718 138.484 363.576 141.459 358.796 141.671C356.459 141.671 354.122 140.927 352.104 139.547C350.086 137.953 348.598 135.723 347.855 133.28L345.61 126.848C342.439 117.822 336.846 102.064 329.904 82.9324H345.943ZM307.051 81.0205C320.616 84.3855 330.226 96.5993 330.314 110.654V141.246L318.853 141.34C314.166 141.372 310.22 141.388 307.013 141.39L304.584 141.388C302.163 141.383 300.292 141.366 298.972 141.338C292.102 141.194 285.289 138.746 279.752 134.023C269.024 124.889 265.944 109.381 272.423 96.7408C278.902 84.1008 293.242 77.6215 307.051 81.0205ZM223.352 67.0173L272.195 67.1059V82.4013H228.964V96.3159H263.698V111.611H228.964V141.352H213.668V76.666C213.677 71.3275 218.013 67.0076 223.352 67.0173ZM401.618 111.718C401.512 120.003 408.097 126.907 416.383 127.013C424.774 127.119 431.572 120.427 431.785 112.036C431.785 103.751 425.093 97.0594 416.807 96.9532C408.522 96.847 401.724 103.433 401.618 111.718ZM284.851 110.762C284.745 119.047 291.33 125.845 299.616 126.057L301.666 126.075C302.433 126.08 303.284 126.083 304.219 126.084L307.849 126.084C309.95 126.08 312.339 126.071 315.018 126.057V111.08C315.018 102.883 308.467 96.142 300.304 95.9995L300.04 95.9972C291.755 95.891 284.957 102.477 284.851 110.762ZM490.858 90.2615L488.734 88.3495C484.804 84.7381 479.599 82.72 474.288 82.72C471.633 82.8262 469.189 84.207 467.915 86.5438V82.8262H452.619V141.352H467.915V104.388C467.915 100.883 470.783 98.0154 474.288 98.0154C475.775 98.0154 477.262 98.6527 478.431 99.7149C479.505 100.793 481.249 100.796 482.327 99.7221L482.429 99.6148L490.858 90.2615ZM555.562 130.412L557.474 128.288L548.226 119.904C547.101 118.884 545.383 118.931 544.315 119.984L544.197 120.109C540.16 124.676 534.424 127.225 528.37 127.225C515.942 126.694 506.276 116.497 506.276 104.176C506.276 91.7485 515.942 81.6578 528.37 81.0205C534.743 81.1267 540.691 83.9946 544.834 88.8806C545.832 90.0548 547.592 90.1999 548.769 89.2049L558.324 81.1267L556.518 79.0024C549.508 70.6111 539.204 65.8313 528.37 65.7251C507.444 66.0438 490.767 83.2511 490.98 104.07C490.98 125.313 507.763 142.521 528.37 142.521C538.673 142.521 548.552 138.06 555.562 130.412ZM588.4 81.6578C571.617 81.8702 558.233 95.4662 558.339 112.249C558.445 128.925 572.042 142.415 588.824 142.308C605.501 142.308 618.991 128.712 619.097 112.036C618.885 95.1475 605.182 81.5516 588.4 81.6578ZM588.4 127.013C580.114 126.907 573.529 120.003 573.635 111.718C573.741 103.433 580.539 96.847 588.824 96.9532C597.11 97.0594 603.802 103.751 603.802 112.036C603.589 120.427 596.791 127.119 588.4 127.013ZM651.828 81.6578C635.046 81.8702 621.662 95.4662 621.768 112.249C621.874 128.925 635.471 142.415 652.253 142.308C668.93 142.308 682.42 128.712 682.526 112.036C682.314 95.1475 668.611 81.5516 651.828 81.6578ZM651.828 127.013C643.543 126.907 636.958 120.003 637.064 111.718C637.17 103.433 643.968 96.847 652.253 96.9532C660.539 97.0594 667.231 103.751 667.231 112.036C667.018 120.427 660.22 127.119 651.828 127.013ZM703.467 122.432V82.8262C703.573 78.8961 701.98 75.0723 699.218 72.3106C697.22 70.3127 694.722 68.9263 692.005 68.3525C691.312 68.2063 690.034 68.1094 688.171 68.0619V126.588C688.065 130.518 689.552 134.342 692.314 137.104C695.076 139.865 698.793 141.459 702.723 141.352H711.627V128.474C711.627 127.139 710.545 126.057 709.21 126.057H707.092C705.09 126.057 703.467 124.434 703.467 122.432Z" fill="white"></path>
<path fill-rule="evenodd" clip-rule="evenodd" d="M56.1255 78.3585L76.3629 98.6674L54.7399 104.819C49.2195 106.39 43.2752 104.847 39.2374 100.795L19 80.486L40.623 74.3342C46.1434 72.7636 52.0877 74.3068 56.1255 78.3585Z" fill="white"></path>
<path fill-rule="evenodd" clip-rule="evenodd" d="M55.7794 26.1897L75.5513 37.1188C80.5991 39.909 83.718 45.2235 83.6857 50.9787L83.5208 79.8247L63.7489 68.8957C58.7011 66.1054 55.5822 60.791 55.6145 55.0357L55.7794 26.1897Z" fill="white"></path>
<path fill-rule="evenodd" clip-rule="evenodd" d="M145.12 50.5693L174.002 50.7341L163.059 70.4815C160.265 75.5231 154.944 78.6381 149.182 78.6058L120.3 78.4411L131.243 58.6937C134.037 53.6521 139.358 50.5371 145.12 50.5693Z" fill="white"></path>
<path fill-rule="evenodd" clip-rule="evenodd" d="M119.638 14L125.798 35.5962C127.37 41.1098 125.825 47.0468 121.768 51.0796L101.434 71.292L95.2749 49.6957C93.7024 44.1821 95.2475 38.2452 99.3042 34.2123L119.638 14Z" fill="white"></path>
<path fill-rule="evenodd" clip-rule="evenodd" d="M121.686 115.175L141.458 126.104C146.505 128.895 149.624 134.209 149.592 139.964L149.427 168.81L129.655 157.881C124.607 155.091 121.488 149.777 121.521 144.021L121.686 115.175Z" fill="white"></path>
<path fill-rule="evenodd" clip-rule="evenodd" d="M165.969 94.2052L186.207 114.514L164.584 120.666C159.063 122.236 153.119 120.693 149.081 116.642L128.844 96.3327L150.467 90.1809C155.987 88.6103 161.931 90.1535 165.969 94.2052Z" fill="white"></path>
<path fill-rule="evenodd" clip-rule="evenodd" d="M103.772 123.708L109.931 145.304C111.504 150.818 109.959 156.755 105.902 160.788L85.5681 181L79.4087 159.404C77.8362 153.89 79.3812 147.953 83.438 143.92L103.772 123.708Z" fill="white"></path>
<path fill-rule="evenodd" clip-rule="evenodd" d="M56.0245 116.394L84.9063 116.559L73.9637 136.306C71.17 141.348 65.8489 144.463 60.0866 144.431L31.2048 144.266L42.1474 124.518C44.9411 119.477 50.2622 116.362 56.0245 116.394Z" fill="white"></path>
</g>
<defs>
<clipPath id="clip0_82_535">
<rect width="692.627" height="167" fill="white" transform="translate(19 14)"></rect>
</clipPath>
</defs>
</svg>