<svg width="730" height="196" viewBox="0 0 730 196" fill="none" xmlns="http://www.w3.org/2000/svg">
<g clip-path="url(#clip0_82_557)">
<path d="M203.428 128.544L201.649 109.582L179.479 127.305L164.963 109.151L211.871 71.6773L210.165 52.8235L142.758 106.673L196.655 174.044L208.997 164.186L189.432 139.73L203.428 128.544Z" fill="white"></path>
<path d="M57.2036 175.032L67.0667 187.368L91.5358 167.814L102.746 181.819L121.718 180.042L103.986 157.884L122.131 143.375L158.332 188.625L178.489 188.553L124.61 121.182L57.2036 175.032Z" fill="white"></path>
<path d="M195.667 34.688L185.804 22.3522L161.317 41.9063L150.124 27.9006L131.152 29.6782L148.884 51.8539L130.739 66.3443L93.2451 19.4792L74.3633 21.1671L128.26 88.5379L195.667 34.688Z" fill="white"></path>
<path d="M56.2168 35.6755L43.8745 45.5334L63.439 69.9894L49.4259 81.1939L51.2224 100.137L73.3919 82.4329L87.9081 100.568L41 138.043L42.7067 156.896L110.096 103.046L56.2168 35.6755Z" fill="white"></path>
<path d="M268.248 143.34V70.241H335.385V82.5229H280.536V100.587H324.731V112.976H280.536V143.34H268.248Z" fill="white"></path>
<path d="M349.683 141.454C347.653 140.197 346.018 138.563 344.76 136.534C343.503 134.505 342.874 132.243 342.874 129.729V70.241H355.073V129.334C355.073 129.873 355.252 130.34 355.63 130.699C356.007 131.076 356.42 131.255 356.905 131.255H367.882V143.34H356.51C354.013 143.34 351.731 142.711 349.701 141.454H349.683Z" fill="white"></path>
<path d="M384.646 141.454C382.58 140.197 380.945 138.563 379.723 136.534C378.501 134.505 377.891 132.243 377.891 129.729V84.4438H389.981V129.316C389.981 129.855 390.161 130.321 390.538 130.68C390.916 131.058 391.365 131.237 391.904 131.237H423.703C424.242 131.237 424.709 131.058 425.068 130.68C425.445 130.303 425.625 129.855 425.625 129.316V84.4438H437.716V129.729C437.716 132.243 437.105 134.505 435.883 136.534C434.662 138.563 433.045 140.197 431.015 141.454C428.985 142.711 426.685 143.339 424.116 143.339H391.509C389.011 143.339 386.712 142.711 384.646 141.454Z" fill="white"></path>
<path d="M454.496 141.454C452.43 140.197 450.795 138.563 449.573 136.534C448.352 134.505 447.741 132.243 447.741 129.729V98.0547C447.741 95.5588 448.352 93.2784 449.573 91.2493C450.795 89.2203 452.43 87.5863 454.496 86.3294C456.562 85.0725 458.843 84.444 461.359 84.444H495.583V70.2229H507.674V143.322H461.359C458.861 143.322 456.562 142.693 454.496 141.436V141.454ZM461.862 131.255H493.661C494.2 131.255 494.667 131.076 495.026 130.699C495.403 130.322 495.583 129.873 495.583 129.334V98.4677C495.583 97.929 495.403 97.4621 495.026 97.103C494.649 96.7259 494.2 96.5464 493.661 96.5464H461.862C461.323 96.5464 460.856 96.7259 460.496 97.103C460.119 97.4801 459.939 97.929 459.939 98.4677V129.334C459.939 129.873 460.119 130.34 460.496 130.699C460.874 131.076 461.323 131.255 461.862 131.255Z" fill="white"></path>
<path d="M524.616 141.454C522.586 140.197 520.951 138.563 519.694 136.534C518.436 134.505 517.807 132.243 517.807 129.729V98.0545C517.807 95.5586 518.436 93.2782 519.694 91.2492C520.951 89.2201 522.586 87.5861 524.616 86.3292C526.646 85.0723 528.91 84.4438 531.425 84.4438H564.033C566.602 84.4438 568.901 85.0723 570.931 86.3292C572.961 87.5861 574.596 89.2201 575.8 91.2492C577.004 93.2782 577.632 95.5406 577.632 98.0545V129.729C577.632 132.243 577.022 134.505 575.8 136.534C574.578 138.563 572.961 140.197 570.931 141.454C568.901 142.711 566.602 143.339 564.033 143.339H531.425C528.928 143.339 526.646 142.711 524.616 141.454ZM531.82 131.255H563.619C564.158 131.255 564.625 131.076 564.985 130.698C565.362 130.321 565.542 129.872 565.542 129.334V98.4675C565.542 97.9288 565.362 97.4619 564.985 97.1028C564.607 96.7257 564.158 96.5462 563.619 96.5462H531.82C531.281 96.5462 530.814 96.7257 530.455 97.1028C530.078 97.4799 529.898 97.9288 529.898 98.4675V129.334C529.898 129.872 530.078 130.339 530.455 130.698C530.832 131.076 531.281 131.255 531.82 131.255Z" fill="white"></path>
<path d="M588.069 143.339V98.0545C588.069 95.5586 588.698 93.2782 589.955 91.2492C591.213 89.2201 592.866 87.5861 594.932 86.3292C596.998 85.0723 599.243 84.4438 601.687 84.4438H634.492V96.5282H602.082C601.543 96.5282 601.076 96.7078 600.717 97.0848C600.339 97.4619 600.16 97.9108 600.16 98.4495V143.321H588.069V143.339Z" fill="white"></path>
<path d="M642.578 143.339V98.0545C642.578 95.5586 643.206 93.2782 644.464 91.2492C645.722 89.2201 647.374 87.5861 649.44 86.3292C651.507 85.0723 653.752 84.4438 656.196 84.4438H689.001V96.5282H656.591C656.052 96.5282 655.585 96.7078 655.225 97.0848C654.848 97.4619 654.668 97.9108 654.668 98.4495V143.321H642.578V143.339Z" fill="white"></path>
</g>
<defs>
<clipPath id="clip0_82_557">
<rect width="648" height="181.625" fill="white" transform="translate(41 7)"></rect>
</clipPath>
</defs>
</svg>