<svg width="730" height="196" viewBox="0 0 730 196" fill="none" xmlns="http://www.w3.org/2000/svg">
<path d="M388.456 125.179V136.821H353.546C353.546 136.16 353.546 135.558 353.7 134.721C353.973 133.893 354.196 133.303 354.197 132.711C354.216 118.478 354.219 104.245 354.188 90.012C354.187 89.3956 353.831 88.7806 353.641 88.1647C353.075 87.9144 352.53 87.5555 351.938 87.433C349.989 87.0304 347.945 86.9439 346.076 86.3218C339.607 84.1694 336.462 79.6087 336.272 71.976C336.113 65.5473 336.213 59.1119 336.2 52.6798C336.198 52.0653 336.199 51.4509 336.199 50.625H330.169V44.9299L329.714 44.7786L317.651 62.8876L334.534 87.2687C333.953 87.3571 333.568 87.4662 333.184 87.4671C328.562 87.4777 323.94 87.4133 319.32 87.5099C318.008 87.5373 317.286 87.0554 316.601 86.0354C314.2 82.462 311.73 78.9356 309.28 75.3957C308.968 74.9451 308.618 74.5209 308.103 73.8449C306.845 75.979 305.689 77.9344 304.54 79.895C303.594 81.5097 302.455 83.0495 301.769 84.769C300.816 87.1597 299.21 87.629 296.837 87.5195C292.621 87.3249 288.39 87.4647 283.75 87.4647C284.894 85.6626 285.836 84.1579 286.798 82.6666C290.928 76.2711 295.039 69.8626 299.225 63.5035C299.876 62.5134 299.889 61.8811 299.195 60.8972C294.236 53.8569 289.35 46.7657 284.447 39.6869C284.132 39.2329 283.861 38.7486 283.45 38.0856C284 38.0232 284.386 37.943 284.771 37.942C289.455 37.9348 294.139 37.9828 298.822 37.9103C299.977 37.8925 300.633 38.2932 301.256 39.2127C304.017 43.2902 306.843 47.3235 309.805 51.6036C311.976 47.8923 314.184 44.4428 316.045 40.816C317.186 38.5944 318.55 37.7493 321.096 37.8719C326.017 38.1087 330.958 37.941 336.084 37.941V26.0344H351.313V37.9031H361.23V50.5736H351.354C351.354 53.0123 351.352 55.2434 351.354 57.4746C351.358 61.5967 351.349 65.7183 351.373 69.84C351.393 73.4336 352.538 74.5593 356.079 74.5559C360.194 74.5521 364.309 74.555 368.708 74.555V125.227C375.33 125.227 381.747 125.227 388.326 125.21C388.488 125.192 388.456 125.179 388.456 125.179Z" fill="white"></path>
<path d="M236.14 36.0769V87.4652C233.877 87.4652 231.721 87.4642 229.566 87.4656C227.193 87.4671 224.818 87.4114 222.448 87.4988C221.31 87.5411 220.658 87.1466 220.035 86.1978C212.401 74.5655 204.722 62.9625 197.052 51.3543C196.714 50.8426 196.338 50.3564 195.631 49.3734V87.3883H180.463V25.2806C180.916 25.2441 181.448 25.1653 181.981 25.1643C185.914 25.1571 189.85 25.2191 193.782 25.1379C195.047 25.1119 195.801 25.5136 196.49 26.5677C203.826 37.7983 211.206 49.0001 218.577 60.2077C219.211 61.1719 219.87 62.1198 220.899 62.9837V25.2465H236.14V36.0769Z" fill="white"></path>
<path d="M257.532 66.3842L252.709 66.3837C252.373 70.9728 255.644 74.332 258.596 75.3284C262.523 76.6544 266.86 75.5773 268.965 72.3564C269.717 71.2053 270.509 70.9949 271.706 71.0064C276.318 71.0521 280.93 71.0252 285.792 71.0252C285.649 71.6853 285.598 72.2166 285.417 72.7C282.18 81.3742 275.913 86.4812 266.824 87.8067C257.59 89.1539 249.254 87.1754 242.961 79.7258C234.533 69.7491 235.597 51.8683 245.179 43.3214C251.617 37.5782 259.37 36.2984 267.619 37.6859C281.668 40.0486 288.815 52.3924 286.658 66.3846L257.532 66.3842ZM265.221 49.7563C258.585 48.3544 253.09 51.8524 252.72 57.8074H271.356C271.598 54.0423 269.641 51.4176 265.221 49.7563ZM388.486 125.175C388.39 124.527 388.41 123.851 388.185 123.27C385.559 116.488 385.316 109.575 387.553 102.718C390.689 93.1035 397.725 87.9835 407.558 86.8031C415.077 85.9004 422.212 87.2903 428.052 92.4795C434.986 98.6391 436.464 106.708 435.59 115.703H401.513C401.19 119.688 403.708 123.539 407.277 124.746C411.518 126.181 415.669 124.917 417.913 121.582C418.246 121.087 418.878 120.471 419.381 120.462C424.366 120.379 429.354 120.412 434.526 120.412C434.059 123.504 432.7 126.058 430.923 128.363C425.11 135.902 417.157 138.347 408.033 137.499C399.798 136.733 393.399 132.856 389.249 125.551C389.129 125.339 388.934 125.17 388.615 125.08C388.456 125.179 388.489 125.192 388.486 125.175ZM402.588 103.442L401.174 107.199H420.254C420.298 104.194 419.057 101.988 416.693 100.37C412.563 97.5437 405.495 98.3009 402.588 103.442ZM484.202 103.072C488.577 90.2277 501.097 83.9854 515.254 87.468C527.283 90.4266 534.336 101.956 532.323 115.677H498.256C498.008 119.803 500.595 123.609 504.274 124.802C508.45 126.155 512.479 124.879 514.732 121.589C515.09 121.066 515.819 120.477 516.387 120.466C521.128 120.376 525.872 120.412 530.616 120.419C530.846 120.42 531.076 120.507 531.455 120.583C529.532 127.422 525.469 132.316 519.131 135.328C509.996 139.669 497.615 137.975 490.549 131.338C484.5 125.656 482.606 118.399 483.026 110.402C483.152 107.993 483.767 105.61 484.202 103.072ZM507.69 98.7525C502.291 99.0028 498.539 102.368 498.31 107.285H517.053C516.693 101.903 513.603 99.0883 507.69 98.7525Z" fill="white"></path>
<path d="M483.95 93.9194C479.032 107.808 474.144 121.552 469.307 135.313C468.902 136.468 468.451 136.981 467.109 136.956C461.867 136.86 456.622 136.953 451.38 136.871C450.774 136.861 449.813 136.326 449.63 135.814C443.925 119.914 438.297 103.986 432.662 88.0605C432.604 87.8996 432.615 87.7137 432.571 87.3423C437.725 87.3423 442.818 87.3058 447.909 87.4115C448.317 87.4196 448.89 88.3478 449.074 88.945C452.329 99.4882 455.535 110.047 458.755 120.6C458.91 121.11 459.104 121.606 459.427 122.525L470.113 87.4129H486.228C485.466 89.5807 484.706 91.7495 483.95 93.9194Z" fill="white"></path>
<path d="M549.082 96.0352V136.778H534.013V71.2678H549.082V96.0352Z" fill="white"></path>
<path d="M386.355 170.113V180.715L383.283 180.882C383.283 176.612 383.285 172.482 383.281 168.354C383.281 167.311 383.357 166.256 383.231 165.228C382.918 162.68 381.236 161.173 378.909 161.235C376.608 161.297 374.971 162.924 374.915 165.528C374.821 169.889 374.884 174.254 374.881 178.617V180.703H371.888V158.116L375.458 159.505C377.223 157.866 379.602 157.576 382.006 158.771C384.632 160.076 386.218 162.261 386.339 165.3C386.399 166.815 386.353 168.335 386.355 170.113ZM278.566 180.882C274.707 179.683 273.023 177.104 272.969 173.38C272.931 170.82 272.884 168.257 272.963 165.7C273.1 161.278 276.149 158.137 280.185 158.146C284.169 158.154 287.237 161.582 287.264 166.246L284.929 166.359C284.706 166.082 284.534 165.958 284.488 165.798C283.504 162.336 282.051 160.988 279.647 161.331C277.162 161.686 275.984 163.441 275.963 166.844C275.952 168.741 275.999 170.639 275.943 172.533C275.865 175.156 276.564 177.292 279.414 177.953C281.746 178.493 283.308 177.161 284.343 173.968L284.648 173.023L287.699 172.848C287.251 174.439 287.064 175.819 286.487 177.01C284.945 180.194 282.671 181.274 278.566 180.882ZM444.548 180.714C441.094 179.112 439.464 176.637 439.668 172.96C439.788 170.787 439.671 168.603 439.678 166.425C439.694 161.526 442.436 158.3 446.7 158.147C450.671 158.005 453.635 161.146 454.042 166.213L451.39 166.37C451.142 165.576 450.968 164.94 450.747 164.321C449.988 162.185 448.518 160.964 446.208 161.362C443.982 161.746 442.742 163.207 442.705 165.524C442.667 167.986 442.723 170.45 442.664 172.912C442.603 175.483 443.455 177.446 446.184 177.934C449.057 178.448 450.255 176.566 450.98 174.193C451.089 173.835 451.21 173.481 451.355 173.034H454.404C453.817 174.753 453.52 176.312 452.788 177.63C451.115 180.64 448.612 181.527 444.548 180.714Z" fill="white"></path>
<path d="M312.333 168.752V148.958H315.461C315.461 156.607 315.441 164.171 315.469 171.736C315.485 175.962 316.072 176.712 320.233 178.099V180.525C319.898 180.645 319.633 180.836 319.388 180.812C315.308 180.436 312.605 177.67 312.375 173.588C312.29 172.074 312.343 170.553 312.333 168.752ZM414.669 163.668V180.639H411.509C411.509 173.755 411.458 166.961 411.572 160.17C411.587 159.296 412.46 158.437 412.672 158.049L411.71 153.432L414.474 153.436L413.957 158.171C415.643 159.067 414.402 161.409 414.669 163.668Z" fill="white"></path>
<path d="M353.592 88.3342C353.832 88.7806 354.187 89.3955 354.188 90.0119C354.22 104.245 354.217 118.478 354.197 132.711C354.197 133.302 353.974 133.893 353.735 134.559C353.587 130.776 353.535 126.918 353.532 123.061C353.525 111.542 353.537 100.023 353.592 88.3342Z" fill="white"></path>
<path d="M344.687 180.755C344.355 180.044 343.745 179.339 343.734 178.623C343.649 173.497 343.713 168.37 343.926 163.249C344.952 162.012 345.759 161.133 346.566 160.254C346.599 165.683 346.632 171.113 346.55 177.004C345.851 178.562 345.269 179.659 344.687 180.755Z" fill="white"></path>
<path d="M346.633 160.064C345.8 161.084 344.913 162.06 343.977 162.987C343.759 161.076 342.678 158.739 345.863 157.755C344.654 156.369 341.809 155.665 344.039 153.423C344.467 152.993 345.814 153.475 346.737 153.537L345.836 157.585L345.02 157.473C345.58 158.274 346.14 159.074 346.633 160.064ZM344.86 180.802C345.269 179.659 345.852 178.563 346.487 177.247C346.039 178.301 348.421 180.713 344.86 180.802Z" fill="white"></path>
</svg>