<svg width="730" height="196" viewBox="0 0 730 196" fill="none" xmlns="http://www.w3.org/2000/svg">
<path d="M293.164 125.649C296.565 123.916 299.184 121.564 300.94 118.655C302.701 115.741 303.593 112.543 303.593 109.148C303.593 105.208 302.643 101.987 300.777 99.5763C298.894 97.1487 296.617 95.3062 294.01 94.0895C291.374 92.867 287.921 91.6214 283.744 90.3931C280.65 89.466 278.216 88.6317 276.519 87.9191C274.792 87.1949 273.32 86.2389 272.156 85.0685C270.962 83.875 270.354 82.3512 270.354 80.5435C270.354 77.9884 271.154 76.0069 272.729 74.657C274.294 73.3186 276.403 72.6349 278.998 72.6349C281.965 72.6349 284.381 73.3939 286.194 74.8829C287.944 76.3256 288.923 78.1622 289.114 80.3407H302.828C302.342 74.7786 300.065 70.3811 296.044 67.2524C291.936 64.06 286.513 62.4377 279.925 62.4377C275.528 62.4377 271.571 63.1967 268.152 64.6858C264.751 66.1748 262.075 68.3417 260.197 71.1285C258.32 73.9154 257.37 77.2352 257.37 80.9954C257.37 84.999 258.303 88.2377 260.139 90.6132C261.988 93.0119 264.236 94.8254 266.808 96.0073C269.415 97.2066 272.857 98.4349 277.028 99.6632C280.117 100.526 282.579 101.332 284.346 102.039C286.142 102.763 287.66 103.771 288.86 105.034C290.082 106.326 290.702 107.983 290.702 109.97C290.702 112.404 289.792 114.397 287.996 115.903C286.218 117.398 283.749 118.151 280.661 118.151C277.573 118.151 275.203 117.346 273.454 115.753C271.762 114.217 270.783 112.114 270.551 109.513H257.185C257.295 113.273 258.367 116.587 260.371 119.362C262.434 122.219 265.284 124.432 268.842 125.95C272.411 127.474 276.478 128.25 280.939 128.25C285.638 128.25 289.746 127.369 293.159 125.637L293.164 125.649Z" fill="white"></path>
<path d="M359.487 87.8841C357.389 84.0834 354.394 81.1053 350.593 79.0369C346.781 76.9627 342.406 75.9141 337.592 75.9141C332.777 75.9141 328.107 76.9975 324.266 79.1296C320.43 81.2618 317.406 84.3441 315.28 88.3013C313.147 92.2643 312.064 96.9341 312.064 102.183C312.064 107.433 313.159 112.016 315.326 115.973C317.487 119.93 320.54 123.03 324.405 125.191C328.275 127.352 332.707 128.453 337.592 128.453C343.629 128.453 348.785 126.865 352.922 123.731C356.955 120.677 359.759 116.743 361.248 112.039H347.8C345.703 116.17 342.175 118.261 337.314 118.261C333.913 118.261 330.998 117.172 328.669 115.028C326.334 112.885 324.99 109.883 324.677 106.112L324.654 105.799H362.331C362.552 104.391 362.662 102.803 362.662 101.071C362.662 96.1288 361.596 91.6907 359.492 87.8841H359.487ZM324.724 97.641L324.77 97.3107C325.274 93.7881 326.664 90.9954 328.901 89.0082C331.143 87.0209 333.942 86.0127 337.221 86.0127C340.68 86.0127 343.646 87.0498 346.045 89.1009C348.449 91.1577 349.707 93.9329 349.77 97.3455V97.641H324.724Z" fill="white"></path>
<path d="M418.381 110.828H404.94C403.265 115.509 399.725 117.885 394.424 117.885C390.635 117.885 387.593 116.489 385.374 113.736C383.172 111.002 382.06 107.114 382.06 102.178C382.06 97.2414 383.172 93.261 385.374 90.5263C387.587 87.7742 390.635 86.3779 394.424 86.3779C397.072 86.3779 399.331 87.0384 401.139 88.3362C402.894 89.5993 404.169 91.3433 404.94 93.5275H418.381C416.95 88.035 414.192 83.6954 410.171 80.6304C406.064 77.496 400.797 75.9084 394.517 75.9084C389.638 75.9084 385.252 77.0035 381.475 79.1646C377.703 81.3257 374.707 84.4138 372.575 88.3362C370.443 92.2645 369.36 96.9227 369.36 102.172C369.36 107.421 370.443 112.079 372.575 116.008C374.707 119.936 377.697 123.024 381.475 125.179C385.252 127.34 389.638 128.435 394.517 128.435C400.733 128.435 405.988 126.802 410.125 123.574C414.169 120.423 416.945 116.129 418.376 110.811L418.381 110.828Z" fill="white"></path>
<path d="M437.93 125.747C440.966 127.416 444.512 128.267 448.469 128.267C451.569 128.267 454.477 127.636 457.119 126.39C459.755 125.15 461.922 123.412 463.556 121.234L464.077 120.538V127.618H476.592V76.7542H464.077V104.791C464.077 108.933 463.017 112.172 460.937 114.414C458.846 116.662 455.931 117.804 452.275 117.804C448.619 117.804 445.798 116.662 443.706 114.414C441.621 112.172 440.566 108.933 440.566 104.791V76.7542H428.144V106.645C428.144 111.158 429.025 115.098 430.757 118.348C432.489 121.593 434.9 124.084 437.93 125.753V125.747Z" fill="white"></path>
<path d="M502.994 59.4771H490.572V127.618H502.994V59.4771Z" fill="white"></path>
<path d="M553.418 76.7485L539.75 113.227L526.268 76.7485H512.322L532.821 126.61L521.807 151.947H535.005L566.616 76.7485H553.418Z" fill="white"></path>
<path d="M599.207 86.4763C602.805 86.4763 605.685 87.6176 607.776 89.8656C609.862 92.1079 610.916 95.3466 610.916 99.4892V127.613H623.338V97.7221C623.338 90.9027 621.461 85.5145 617.759 81.7195C614.057 77.9245 609.126 76.001 603.106 76.001C599.949 76.001 597.005 76.6325 594.363 77.8782C591.721 79.1239 589.526 80.862 587.828 83.0405L587.306 83.7068V76.7426H574.885V127.607H587.306V99.4834C587.306 95.3408 588.378 92.1021 590.499 89.8599C592.619 87.6118 595.551 86.4705 599.207 86.4705V86.4763Z" fill="white"></path>
<path d="M217.873 97.6064L217.943 97.4732C222.277 89.1068 224.565 79.7092 224.565 70.2942C224.565 37.5995 197.977 11 165.294 11C147.015 11 130.039 19.2389 118.729 33.6076C110.948 43.4455 106.574 55.2592 106.064 67.7623C106.023 68.6256 106 69.4541 106 70.2884C106 79.7208 108.289 89.1242 112.622 97.4905L112.692 97.6238L112.622 97.7571C108.289 106.118 106 115.515 106 124.936C106 157.631 132.588 184.23 165.271 184.23C183.556 184.23 200.527 175.991 211.842 161.623C219.617 151.785 223.992 139.971 224.502 127.462C224.542 126.576 224.565 125.747 224.565 124.942C224.565 115.509 222.277 106.106 217.943 97.7397L217.873 97.6064ZM116.481 57.2523C116.504 57.1654 116.527 57.0727 116.545 56.98C116.568 56.8699 116.597 56.754 116.626 56.6439C118.184 51.0471 120.774 45.7109 124.32 40.7804C124.361 40.7224 124.413 40.6297 124.471 40.537C124.697 40.1546 124.888 39.8592 125.125 39.7433C134.506 35.1951 145.004 33.2368 155.479 34.0827C177.641 35.8904 197.224 50.5836 205.376 71.5283L206.031 73.2201L204.878 71.818C187.942 51.2151 160.375 42.5475 134.656 49.7435C128.324 51.5106 122.356 54.1468 116.91 57.5709L116.284 57.9649L116.475 57.2523H116.481ZM153.73 121.894C140.317 118.719 128.729 110.214 121.69 98.2727C121.626 98.1684 121.568 98.0641 121.51 97.9598L121.319 97.6296L121.4 97.4848C128.411 85.2308 140.155 76.5168 153.84 73.3418C144.616 77.5481 138.196 86.8415 138.196 97.6412C138.196 108.441 144.564 117.665 153.73 121.894ZM146.175 97.647C146.175 87.305 154.558 78.9213 164.9 78.9213C175.242 78.9213 183.626 87.305 183.626 97.647C183.626 107.989 175.242 116.373 164.9 116.373C154.558 116.373 146.175 107.989 146.175 97.647ZM191.598 97.647C191.598 86.5807 184.866 77.0904 175.277 73.0405C189.362 75.9085 201.593 84.5992 208.881 96.9633C208.945 97.0618 209.003 97.1661 209.061 97.2704L209.258 97.6064L209.177 97.7513C201.917 110.434 189.623 119.316 175.364 122.224C184.912 118.157 191.61 108.684 191.61 97.6528L191.598 97.647ZM114.76 70.0045L114.859 69.9176C121.29 64.4309 128.747 60.4795 137.014 58.1735C153.956 53.4341 171.946 56.4759 186.366 66.5108L188.284 67.8492L186.03 66.9975C185.996 66.9859 185.961 66.9744 185.926 66.9628L185.555 66.8179C179.767 64.7032 173.678 63.5096 167.455 63.2663C162.073 63.0519 156.661 63.5908 151.366 64.8712C146.435 66.0589 141.673 67.884 137.2 70.2826C132.744 72.6813 128.602 75.6419 124.9 79.0893C122.379 81.43 120.05 84.0083 117.976 86.7545L117.646 87.1891L117.472 86.6734C115.67 81.3952 114.755 75.8795 114.755 70.2884V69.9987L114.76 70.0045ZM187.78 170.209C180.758 173.709 173.185 175.482 165.277 175.482C137.42 175.482 114.76 152.81 114.76 124.948C114.76 124.264 114.801 123.569 114.836 122.902L114.951 120.695L115.432 122.259C119.366 135.023 126.933 146.292 137.327 154.832C147.959 163.575 160.769 168.778 174.373 169.885C178.713 170.244 183.162 170.174 187.618 169.665L189.258 169.473L187.78 170.209ZM214.084 137.984C214.061 138.071 214.038 138.163 214.02 138.25C213.997 138.36 213.968 138.476 213.939 138.586C212.358 144.27 209.768 149.606 206.239 154.456C206.193 154.514 206.141 154.606 206.083 154.705C205.863 155.081 205.672 155.377 205.434 155.487C197.479 159.346 188.725 161.345 179.872 161.345C178.278 161.345 176.679 161.281 175.08 161.148C152.872 159.34 133.266 144.6 125.137 123.598L124.482 121.906L125.63 123.308C138.486 138.998 157.449 148.001 177.664 148.001C183.8 148.001 189.935 147.155 195.897 145.487C202.224 143.72 208.198 141.083 213.644 137.653L214.27 137.26L214.078 137.972L214.084 137.984ZM215.805 125.226L215.706 125.313C209.27 130.799 201.819 134.751 193.551 137.057C188.307 138.523 182.965 139.247 177.658 139.247C165.816 139.247 154.158 135.649 144.193 128.719L142.269 127.381L144.529 128.233C144.564 128.244 144.593 128.25 144.628 128.262L145.01 128.407C148.834 129.809 152.872 130.817 157.021 131.408C159.831 131.808 162.612 132.01 165.277 132.01C183.753 132.01 201.442 123.209 212.589 108.476L212.92 108.041L213.093 108.557C214.895 113.841 215.811 119.351 215.811 124.942V125.226H215.805ZM215.735 72.3395L215.62 74.5469L215.139 72.9826C211.205 60.2187 203.638 48.9555 193.244 40.4096C182.612 31.6667 169.802 26.4638 156.198 25.3572C151.847 24.9979 147.385 25.079 142.924 25.5947L141.285 25.7859L142.762 25.0501C149.796 21.5448 157.38 19.7661 165.294 19.7661C193.151 19.7661 215.811 42.4374 215.811 70.3058C215.811 70.9895 215.77 71.6848 215.735 72.351V72.3395Z" fill="white"></path>
<path d="M173.794 97.647C173.794 92.7338 169.814 88.7534 164.901 88.7534C159.987 88.7534 156.007 92.7338 156.007 97.647C156.007 102.56 159.987 106.541 164.901 106.541C169.814 106.541 173.794 102.56 173.794 97.647Z" fill="white"></path>
</svg>