<svg width="730" height="196" viewBox="0 0 730 196" fill="none" xmlns="http://www.w3.org/2000/svg">
<g clip-path="url(#clip0_82_549)">
<mask id="mask0_82_549" style="mask-type:luminance" maskUnits="userSpaceOnUse" x="68" y="33" width="130" height="130">
<path d="M68 33H162.384C171.83 33 180.889 36.7524 187.568 43.4318C194.248 50.1112 198 59.1704 198 68.6164V163H103.616C94.1704 163 85.1112 159.248 78.4318 152.568C71.7524 145.889 68 136.83 68 127.384V33Z" fill="white"></path>
</mask>
<g mask="url(#mask0_82_549)">
<path d="M149.291 99.8574V80.0333L164.25 67.0173V130.352H149.291V99.8574ZM100.624 66.5988L115.583 79.5774L132.652 94.5363L144.358 84.2699V104.08L132.652 114.271L115.583 99.4585V130.212H100.624V66.5988ZM67.9695 162.941H196.901V34.0098H67.9695V162.941Z" fill="white"></path>
</g>
</g>
<path d="M253.665 134.5L268.145 69.9389H274.232L259.752 134.5H253.665ZM253.388 134.5L238.908 69.9389H244.995L259.476 134.5H253.388ZM235.68 134.5V69.9389H241.767V134.5H235.68ZM271.465 134.5V69.9389H277.553V134.5H271.465ZM290.463 134.5V69.9389H296.551V134.5H290.463ZM324.196 108.03V101.943H349.098V108.03H324.196ZM374.904 119.374V85.0647H380.992V119.374H374.904ZM374.904 85.0647C374.904 81.7444 375.611 78.8545 377.026 76.395C378.44 73.8741 380.438 71.9373 383.021 70.5846C385.603 69.1704 388.585 68.4633 391.967 68.4633V74.2738C388.524 74.2738 385.818 75.2268 383.851 77.1329C381.945 78.9775 380.992 81.6214 380.992 85.0647H374.904ZM374.904 119.374H380.992C380.992 122.756 381.945 125.4 383.851 127.306C385.818 129.212 388.524 130.165 391.967 130.165V135.976C388.585 135.976 385.603 135.299 383.021 133.947C380.438 132.532 378.44 130.596 377.026 128.136C375.611 125.615 374.904 122.695 374.904 119.374ZM403.865 87.0937C403.434 83.0971 402.174 79.9613 400.083 77.6863C397.993 75.4113 395.256 74.2738 391.875 74.2738V68.4633C396.732 68.4633 400.698 70.0004 403.772 73.0748C406.908 76.1491 408.814 80.4224 409.491 85.8948L403.865 87.0937ZM403.865 117.345L409.491 118.544C408.814 124.017 406.908 128.29 403.772 131.364C400.698 134.439 396.732 135.976 391.875 135.976V130.165C395.256 130.165 397.993 129.028 400.083 126.753C402.174 124.478 403.434 121.342 403.865 117.345ZM445.375 119.374V85.0647H451.463V119.374H445.375ZM417.337 119.374V85.0647H423.425V119.374H417.337ZM451.463 85.1569H445.375C445.375 81.7137 444.392 79.0697 442.424 77.2251C440.518 75.319 437.843 74.366 434.4 74.366V68.5555C437.843 68.5555 440.825 69.2626 443.346 70.6768C445.929 72.0295 447.927 73.9663 449.341 76.4873C450.755 78.9468 451.463 81.8366 451.463 85.1569ZM417.337 85.1569C417.337 81.8366 418.044 78.9468 419.459 76.4873C420.873 73.9663 422.871 72.0295 425.454 70.6768C428.036 69.2626 431.018 68.5555 434.4 68.5555V74.366C430.957 74.366 428.251 75.319 426.284 77.2251C424.378 79.0697 423.425 81.7137 423.425 85.1569H417.337ZM451.463 119.282C451.463 122.602 450.755 125.523 449.341 128.044C447.927 130.503 445.929 132.44 443.346 133.854C440.825 135.207 437.843 135.883 434.4 135.883V130.073C437.843 130.073 440.518 129.12 442.424 127.214C444.392 125.308 445.375 122.664 445.375 119.282H451.463ZM417.337 119.282H423.425C423.425 122.664 424.378 125.308 426.284 127.214C428.251 129.12 430.957 130.073 434.4 130.073V135.883C431.018 135.883 428.036 135.207 425.454 133.854C422.871 132.44 420.873 130.503 419.459 128.044C418.044 125.523 417.337 122.602 417.337 119.282ZM489.32 134.5L463.403 69.9389H470.044L495.868 134.5H489.32ZM462.112 134.5V69.9389H468.199V134.5H462.112ZM491.072 134.5V69.9389H497.16V134.5H491.072ZM507.305 119.374V85.0647H513.392V119.374H507.305ZM507.305 85.0647C507.305 81.7444 508.012 78.8545 509.426 76.395C510.84 73.8741 512.839 71.9373 515.421 70.5846C518.004 69.1704 520.986 68.4633 524.367 68.4633V74.2738C520.924 74.2738 518.219 75.2268 516.251 77.1329C514.345 78.9775 513.392 81.6214 513.392 85.0647H507.305ZM507.305 119.374H513.392C513.392 122.756 514.345 125.4 516.251 127.306C518.219 129.212 520.924 130.165 524.367 130.165V135.976C520.986 135.976 518.004 135.299 515.421 133.947C512.839 132.532 510.84 130.596 509.426 128.136C508.012 125.615 507.305 122.695 507.305 119.374ZM536.265 87.0937C535.835 83.0971 534.574 79.9613 532.484 77.6863C530.393 75.4113 527.657 74.2738 524.275 74.2738V68.4633C529.133 68.4633 533.099 70.0004 536.173 73.0748C539.309 76.1491 541.215 80.4224 541.891 85.8948L536.265 87.0937ZM536.265 117.345L541.891 118.544C541.215 124.017 539.309 128.29 536.173 131.364C533.099 134.439 529.133 135.976 524.275 135.976V130.165C527.657 130.165 530.393 129.028 532.484 126.753C534.574 124.478 535.835 121.342 536.265 117.345ZM552.597 134.5V128.69H578.79V134.5H552.597ZM554.442 105.448V99.3603H573.257V105.448H554.442ZM550.199 69.9389H556.286V134.5H550.199V69.9389ZM553.519 69.9389H577.868V75.7494H553.519V69.9389ZM590.426 75.7494V69.9389H601.493V75.7494H590.426ZM590.426 108.768V102.957H601.493V108.768H590.426ZM612.377 92.2586V86.5404H618.464V92.2586H612.377ZM618.464 86.5404H612.377C612.377 83.0971 611.393 80.4532 609.425 78.6086C607.519 76.7025 604.845 75.7494 601.401 75.7494V69.9389C604.845 69.9389 607.827 70.646 610.348 72.0602C612.93 73.4129 614.928 75.3498 616.343 77.8707C617.757 80.3302 618.464 83.2201 618.464 86.5404ZM618.464 92.1664C618.464 95.4867 617.757 98.4073 616.343 100.928C614.928 103.388 612.93 105.325 610.348 106.739C607.827 108.091 604.845 108.768 601.401 108.768V102.957C604.845 102.957 607.519 102.004 609.425 100.098C611.393 98.1921 612.377 95.5482 612.377 92.1664H618.464ZM588.028 134.5V69.9389H594.115V134.5H588.028ZM623.068 75.7494V69.9389H659.038V75.7494H623.068ZM638.009 134.5V69.9389H644.097V134.5H638.009Z" fill="white"></path>
<defs>
<clipPath id="clip0_82_549">
<rect width="130" height="130" fill="white" transform="translate(68 33)"></rect>
</clipPath>
</defs>
</svg>