<svg width="730" height="196" viewBox="0 0 730 196" fill="none" xmlns="http://www.w3.org/2000/svg">
<path d="M52.7726 60.2119H118.843L116.561 77.0298H71.9931L69.7108 93.8479H110.554L88.5708 110.666H67.3081L65.0258 127.484H110.554L108.272 144.302H41L52.7726 60.2119Z" fill="white"></path>
<path d="M136.005 144.302C132.802 144.302 129.919 143.781 127.356 142.74C124.873 141.699 122.791 140.258 121.109 138.416C119.507 136.494 118.346 134.211 117.625 131.568C116.985 128.845 116.905 125.882 117.385 122.679L123.151 81.8351C123.632 78.5514 124.553 75.5883 125.914 72.9455C127.356 70.3026 129.158 68.0602 131.32 66.2183C133.482 64.2962 135.965 62.8146 138.768 61.7735C141.571 60.7324 144.574 60.2119 147.778 60.2119H195.228L183.336 77.0298H157.028C153.504 77.0298 150.501 78.2311 148.018 80.6337C145.615 82.9563 144.134 86.0794 143.573 90.0037L140.209 114.51C139.649 118.434 140.209 121.597 141.891 124C143.653 126.323 146.296 127.484 149.82 127.484H177.93L189.823 144.302H136.005Z" fill="white"></path>
<path d="M240.592 94.088C246.758 94.088 251.964 94.5686 256.208 95.5298C260.453 96.4105 263.856 97.732 266.419 99.494C269.062 101.176 270.943 103.298 272.064 105.861C273.187 108.424 273.747 111.347 273.747 114.63C273.747 118.234 273.187 121.838 272.064 125.442C271.023 128.965 269.423 132.129 267.26 134.932C265.178 137.735 262.575 140.017 259.452 141.779C256.409 143.461 252.885 144.302 248.88 144.302H191.219L203.111 127.484H242.754C245.797 127.484 247.999 126.603 249.361 124.841C250.802 123.079 251.683 121.077 252.004 118.835C252.404 116.031 251.403 114.03 249.001 112.828C246.598 111.547 242.994 110.906 238.189 110.906H227.017C218.128 110.906 211.641 109.144 207.556 105.62C203.472 102.016 201.43 96.9311 201.43 90.3642C201.43 86.9205 201.95 83.4366 202.991 79.913C204.032 76.309 205.554 73.0655 207.556 70.1825C209.558 67.2194 212.041 64.8168 215.004 62.9748C217.967 61.1329 221.371 60.2119 225.215 60.2119H279.514L267.62 77.0298H234.705C233.184 77.0298 231.742 77.2702 230.381 77.7505C229.099 78.2311 227.938 78.9119 226.897 79.7929C225.936 80.5936 225.135 81.5547 224.494 82.6759C223.854 83.717 223.453 84.7982 223.293 85.9194C222.893 88.8024 223.894 90.8847 226.296 92.166C228.699 93.4474 232.303 94.088 237.108 94.088H240.592Z" fill="white"></path>
<path d="M340.261 64.3962H365.374L364.506 70.7887H347.566L346.699 77.1811H362.223L353.868 83.5736H345.786L344.918 89.9661H362.223L361.356 96.3585H335.786L340.261 64.3962ZM362.308 96.3585L376.097 80.3774L366.783 64.3962H376.691L381.987 73.5283L389.841 64.3962H399.749L372.216 96.3585H362.308ZM386.736 81.7015L395.275 96.3585H385.366L380.846 88.5506L386.736 81.7015ZM405.03 96.3585C403.813 96.3585 402.717 96.1606 401.742 95.7649C400.8 95.3693 400.007 94.8213 399.368 94.1211C398.758 93.3906 398.318 92.523 398.044 91.5185C397.8 90.4836 397.77 89.3572 397.953 88.1396L400.144 72.6151C400.327 71.367 400.676 70.2408 401.194 69.2362C401.742 68.2317 402.427 67.3795 403.249 66.6793C404.071 65.9487 405.014 65.3855 406.08 64.9898C407.146 64.5942 408.288 64.3962 409.505 64.3962H427.541L423.02 70.7887H413.021C411.68 70.7887 410.539 71.2453 409.596 72.1585C408.683 73.0413 408.119 74.2285 407.907 75.72L406.628 85.0347C406.416 86.5262 406.628 87.7287 407.267 88.6419C407.936 89.5247 408.941 89.9661 410.281 89.9661H420.965L425.486 96.3585H405.03ZM433.052 64.3962H441.271L437.709 89.9661H453.188L452.32 96.3585H428.577L433.052 64.3962ZM485.737 88.1396C485.554 89.3572 485.189 90.4836 484.641 91.5185C484.123 92.523 483.454 93.3906 482.632 94.1211C481.81 94.8213 480.865 95.3693 479.801 95.7649C478.765 96.1606 477.623 96.3585 476.377 96.3585H463.455C462.236 96.3585 461.14 96.1606 460.167 95.7649C459.222 95.3693 458.432 94.8213 457.793 94.1211C457.183 93.3906 456.743 92.523 456.469 91.5185C456.224 90.4836 456.195 89.3572 456.377 88.1396L459.711 64.3962H467.929L465.053 85.0347C464.838 86.5262 465.053 87.7287 465.692 88.6419C466.361 89.5247 467.366 89.9661 468.706 89.9661H472.815C474.153 89.9661 475.294 89.5247 476.24 88.6419C477.182 87.7287 477.76 86.5262 477.975 85.0347L480.851 64.3962H489.07L485.737 88.1396ZM506.403 77.2725C508.748 77.2725 510.727 77.4551 512.339 77.8204C513.953 78.1553 515.247 78.6576 516.22 79.3272C517.224 79.9664 517.941 80.773 518.366 81.7472C518.793 82.7213 519.005 83.8323 519.005 85.0804C519.005 86.4502 518.793 87.82 518.366 89.1898C517.971 90.5293 517.361 91.7315 516.539 92.797C515.75 93.8625 514.759 94.73 513.572 95.3996C512.416 96.0389 511.076 96.3585 509.553 96.3585H487.636L492.157 89.9661H507.225C508.382 89.9661 509.22 89.6311 509.736 88.9615C510.284 88.2919 510.62 87.5308 510.741 86.6785C510.894 85.613 510.512 84.8521 509.599 84.3955C508.686 83.9085 507.316 83.6649 505.49 83.6649H501.243C497.864 83.6649 495.399 82.9953 493.846 81.6559C492.294 80.286 491.518 78.353 491.518 75.857C491.518 74.5481 491.716 73.224 492.111 71.8845C492.508 70.5147 493.086 69.2819 493.846 68.1861C494.609 67.0598 495.552 66.1466 496.677 65.4464C497.805 64.7462 499.097 64.3962 500.558 64.3962H521.197L516.676 70.7887H504.165C503.588 70.7887 503.04 70.88 502.522 71.0627C502.035 71.2453 501.595 71.504 501.198 71.8389C500.832 72.1432 500.529 72.5085 500.284 72.9347C500.042 73.3304 499.889 73.7413 499.828 74.1676C499.677 75.2634 500.056 76.0549 500.969 76.5419C501.882 77.0289 503.252 77.2725 505.079 77.2725H506.403ZM524.523 73.163L525.756 64.3962H533.975L533.701 66.5423L524.523 73.163ZM524.249 75.1721L533.381 68.5513L529.5 96.3585H521.281L524.249 75.1721ZM552.796 96.3585H544.121L535.445 64.3962H544.121L549.919 85.811L561.746 64.3962H570.421L552.796 96.3585ZM571.816 64.3962H596.929L596.062 70.7887H579.122L578.254 77.1811H593.779L585.423 83.5736H577.341L576.473 89.9661H593.779L592.911 96.3585H567.341L571.816 64.3962ZM615.451 96.3585C614.234 96.3585 613.139 96.1606 612.164 95.7649C611.221 95.3693 610.429 94.8213 609.789 94.1211C609.18 93.3906 608.739 92.523 608.465 91.5185C608.221 90.4836 608.191 89.3572 608.374 88.1396L610.566 72.6151C610.748 71.367 611.098 70.2408 611.616 69.2362C612.164 68.2317 612.849 67.3795 613.671 66.6793C614.492 65.9487 615.435 65.3855 616.501 64.9898C617.568 64.5942 618.709 64.3962 619.926 64.3962H637.962L633.441 70.7887H623.442C622.102 70.7887 620.96 71.2453 620.017 72.1585C619.104 73.0413 618.54 74.2285 618.328 75.72L617.049 85.0347C616.837 86.5262 617.049 87.7287 617.689 88.6419C618.358 89.5247 619.362 89.9661 620.702 89.9661H631.387L635.907 96.3585H615.451ZM658.587 80.3774L657.034 74.6242L650.55 85.7653L670.002 76.0853L660.778 88.1396L644.432 96.3585H635.756L654.295 64.3962H662.97L666.349 76.6332L658.587 80.3774ZM662.97 96.3585L661.052 90.0117L667.627 81.5189L671.645 96.3585H662.97ZM677.54 64.3962H696.17C699.092 64.3962 701.284 65.0964 702.745 66.4966C704.236 67.8664 704.982 69.7995 704.982 72.2955C704.982 74.2132 704.646 75.9483 703.978 77.5008C703.309 79.0229 702.379 80.3317 701.192 81.4276C700.005 82.5234 698.606 83.3606 696.992 83.9389C695.377 84.5172 693.629 84.8064 691.741 84.8064H682.882L681.284 96.3585H673.066L677.54 64.3962ZM683.796 78.414H692.289C693.658 78.414 694.679 78.0183 695.348 77.2268C696.017 76.4353 696.428 75.5221 696.581 74.4872C696.642 74.0915 696.656 73.6806 696.626 73.2544C696.597 72.8281 696.473 72.4325 696.261 72.0672C696.078 71.7019 695.788 71.3976 695.393 71.154C695.028 70.9104 694.51 70.7887 693.841 70.7887H684.846L683.796 78.414ZM696.581 85.9479L703.567 96.3585H694.024L687.129 85.9479H696.581ZM353.594 122.933C355.936 122.933 357.915 123.115 359.529 123.481C361.141 123.816 362.436 124.318 363.411 124.988C364.415 125.627 365.13 126.433 365.557 127.408C365.981 128.382 366.196 129.493 366.196 130.741C366.196 132.111 365.981 133.48 365.557 134.85C365.159 136.19 364.552 137.392 363.73 138.457C362.938 139.523 361.949 140.39 360.762 141.06C359.605 141.699 358.265 142.019 356.744 142.019H334.827L339.348 135.626H354.415C355.571 135.626 356.409 135.292 356.927 134.622C357.475 133.952 357.808 133.191 357.931 132.339C358.082 131.273 357.703 130.512 356.79 130.056C355.877 129.569 354.507 129.325 352.68 129.325H348.434C345.055 129.325 342.589 128.656 341.037 127.316C339.485 125.946 338.708 124.013 338.708 121.517C338.708 120.209 338.905 118.884 339.302 117.545C339.697 116.175 340.274 114.942 341.037 113.846C341.797 112.72 342.74 111.807 343.868 111.107C344.993 110.407 346.288 110.057 347.749 110.057H368.388L363.867 116.449H351.356C350.776 116.449 350.228 116.54 349.712 116.723C349.224 116.906 348.783 117.164 348.388 117.499C348.023 117.804 347.717 118.169 347.475 118.595C347.231 118.991 347.078 119.402 347.018 119.828C346.865 120.924 347.247 121.715 348.16 122.202C349.073 122.689 350.443 122.933 352.269 122.933H353.594ZM372.944 110.057H398.058L397.19 116.449H380.25L379.383 122.842H394.907L386.551 129.234H378.469L377.602 135.626H394.907L394.04 142.019H368.47L372.944 110.057ZM401.749 110.057H409.968L406.407 135.626H421.885L421.018 142.019H397.275L401.749 110.057ZM428.728 110.057H453.841L452.973 116.449H436.033L435.166 122.842H450.69L442.334 129.234H434.253L433.385 135.626H450.69L449.823 142.019H424.253L428.728 110.057ZM460.5 142.019C459.284 142.019 458.188 141.821 457.213 141.425C456.27 141.03 455.478 140.482 454.839 139.782C454.229 139.051 453.788 138.183 453.514 137.179C453.27 136.144 453.24 135.018 453.423 133.8L455.615 118.275C455.797 117.027 456.147 115.901 456.665 114.897C457.213 113.892 457.898 113.04 458.72 112.34C459.542 111.609 460.484 111.046 461.551 110.65C462.617 110.255 463.758 110.057 464.975 110.057H483.011L478.491 116.449H468.491C467.151 116.449 466.009 116.906 465.067 117.819C464.153 118.702 463.589 119.889 463.377 121.38L462.099 130.695C461.886 132.187 462.099 133.389 462.738 134.302C463.407 135.185 464.411 135.626 465.751 135.626H476.436L480.956 142.019H460.5ZM486.239 110.057H515.918L511.398 116.449H504.275L500.714 142.019H492.495L496.056 116.449H490.76L486.239 110.057ZM517.03 118.823L518.263 110.057H526.482L526.208 112.203L517.03 118.823ZM516.756 120.832L525.888 114.212L522.007 142.019H513.788L516.756 120.832ZM529.233 118.275C529.416 117.027 529.765 115.901 530.283 114.897C530.831 113.892 531.516 113.04 532.338 112.34C533.16 111.609 534.103 111.046 535.169 110.65C536.235 110.255 537.377 110.057 538.593 110.057H554.894C556.143 110.057 557.239 110.255 558.182 110.65C559.125 111.046 559.901 111.609 560.51 112.34C561.15 113.04 561.59 113.892 561.835 114.897C562.109 115.901 562.154 117.027 561.972 118.275L559.78 133.8C559.597 135.018 559.232 136.144 558.684 137.179C558.166 138.183 557.497 139.051 556.675 139.782C555.853 140.482 554.91 141.03 553.844 141.425C552.81 141.821 551.668 142.019 550.419 142.019H534.119C532.902 142.019 531.806 141.821 530.831 141.425C529.888 141.03 529.096 140.482 528.457 139.782C527.847 139.051 527.407 138.183 527.133 137.179C526.888 136.144 526.859 135.018 527.041 133.8L529.233 118.275ZM535.717 130.695C535.505 132.187 535.717 133.389 536.356 134.302C537.025 135.185 538.03 135.626 539.37 135.626H546.858C548.198 135.626 549.34 135.185 550.282 134.302C551.225 133.389 551.805 132.187 552.018 130.695L553.296 121.38C553.508 119.889 553.28 118.702 552.611 117.819C551.942 116.906 550.938 116.449 549.598 116.449H542.109C540.769 116.449 539.628 116.906 538.685 117.819C537.772 118.702 537.208 119.889 536.995 121.38L535.717 130.695ZM566.688 110.057H574.907L587.646 131.289L590.614 110.057H598.833L594.358 142.019H586.14L573.4 120.787L570.432 142.019H562.214L566.688 110.057Z" fill="white"></path>
<mask id="mask0_82_583" style="mask-type:luminance" maskUnits="userSpaceOnUse" x="278" y="59" width="53" height="86">
<path d="M330.708 59.9329L278.831 59.8301L278.662 144.729L330.54 144.832L330.708 59.9329Z" fill="white"></path>
</mask>
<g mask="url(#mask0_82_583)">
<path fill-rule="evenodd" clip-rule="evenodd" d="M294.035 60.0868C294.035 60.0959 292.96 67.5 291.642 76.5401C290.327 85.5801 289.257 92.9817 289.261 92.9881C289.268 92.9942 289.576 92.8465 289.946 92.6598C293.457 90.8884 296.608 89.4483 299.692 88.2061L299.978 88.0903L301.982 74.3281C303.085 66.7589 304.007 60.4174 304.032 60.2357L304.08 59.9051L299.058 59.9875C296.295 60.0329 294.035 60.0775 294.035 60.0868ZM306.799 60.0115C306.592 61.4107 302.879 86.9497 302.879 86.9719C302.879 86.9949 302.966 86.9735 303.22 86.8879C305.256 86.1959 306.815 85.7502 308.802 85.2925C309.984 85.0201 311.338 84.7425 312.619 84.5096L313.267 84.3916L313.29 84.2343C313.354 83.7738 316.849 59.7679 316.858 59.7347C316.865 59.6975 316.616 59.6996 311.845 59.7779L306.822 59.8603L306.799 60.0115ZM319.477 60.5073C318.835 64.8996 316.068 83.924 316.068 83.924C316.068 83.924 316.288 83.8948 316.55 83.8544C318.123 83.614 320.648 83.2782 322.561 83.0554C323.593 82.935 325.627 82.715 326.011 82.6821C326.13 82.6718 326.237 82.657 326.251 82.6492C326.262 82.6412 326.819 78.8742 327.488 74.2776L328.705 65.9204L329.34 62.3064L329.828 59.4829L324.1 59.5769L319.602 59.6506L319.477 60.5073ZM324.831 87.8584C322.269 88.136 319.228 88.5287 317.144 88.8503C316.007 89.0259 315.345 89.1346 315.324 89.1483C315.304 89.1622 311.797 113.209 311.813 113.224C311.817 113.229 312.08 113.193 312.397 113.144C314.934 112.755 318.182 112.344 321.246 112.025C321.662 111.982 322.006 111.94 322.006 111.94C322.018 111.919 325.515 87.8221 325.509 87.8059C325.504 87.7944 325.21 87.8173 324.831 87.8584ZM311.902 89.7651C308.349 90.4927 305.993 91.1722 302.777 92.3982L302.044 92.6778L300.332 104.442C299.389 110.912 298.615 116.242 298.608 116.288L298.596 116.37L299.037 116.218C300.978 115.554 302.457 115.12 304.217 114.698C305.503 114.39 307.306 114.012 308.591 113.782C308.925 113.722 308.98 113.706 308.996 113.667C309.007 113.642 309.783 108.335 310.724 101.873C311.662 95.4117 312.447 90.0165 312.468 89.8841C312.489 89.7517 312.498 89.6441 312.491 89.6453C312.484 89.6464 312.219 89.7003 311.902 89.7651ZM298.994 93.9449C298.925 93.9746 298.496 94.1657 298.039 94.3693C295.688 95.4149 293.204 96.6183 290.633 97.9568C289.834 98.373 288.378 99.147 288.355 99.1682C288.346 99.1769 284.96 122.416 284.967 122.425C284.971 122.429 285.154 122.338 285.373 122.223C285.88 121.958 287.211 121.294 288.049 120.887C290.624 119.635 293.291 118.441 295.492 117.555L295.702 117.47L297.418 105.688C298.361 99.2072 299.128 93.9017 299.124 93.8976C299.119 93.8938 299.06 93.915 298.994 93.9449ZM321.118 117.092C321.075 117.098 320.618 117.149 320.105 117.206C317.849 117.457 315.484 117.764 313.413 118.076C312.637 118.193 311.055 118.448 311.046 118.457C311.046 118.457 310.178 124.379 309.126 131.61L307.213 144.756L312.226 144.68C314.984 144.638 317.246 144.597 317.246 144.597C317.253 144.591 321.253 117.12 321.253 117.091C321.253 117.082 321.239 117.076 321.226 117.078C321.21 117.081 321.162 117.087 321.118 117.092ZM307.92 119.028C304.589 119.726 302.767 120.225 300.199 121.141C299.658 121.334 298.384 121.813 297.912 122.001L297.768 122.058L296.099 133.512L294.432 144.966L299.446 144.889C302.204 144.847 304.466 144.807 304.466 144.807C304.471 144.804 305.313 139.021 306.343 131.955C307.37 124.89 308.217 119.077 308.224 119.037C308.231 118.996 308.228 118.965 308.217 118.966C308.208 118.968 308.073 118.995 307.92 119.028ZM293.85 123.722C291.633 124.719 289.766 125.619 287.286 126.887C286.563 127.257 284.656 128.267 284.241 128.501L284.063 128.6L282.857 136.888L281.652 145.176L286.665 145.099C289.423 145.057 291.686 145.016 291.686 145.016C291.693 145.011 294.85 123.341 294.848 123.311C294.848 123.302 294.836 123.296 294.82 123.296C294.804 123.297 294.368 123.488 293.85 123.722Z" fill="white"></path>
</g>
</svg>